<svg width="48" height="48" viewBox="0 0 48 48" fill="none" xmlns="http://www.w3.org/2000/svg">
<rect width="48" height="48" rx="24" fill="black"/>
<g clip-path="url(#clip0_50_12)">
<path d="M33.125 12.8088C30.6632 10.3519 27.4238 9 24 9H23.9769C20.5331 9.00613 17.2324 10.3785 14.7995 12.8158C12.3665 15.2531 11 18.5562 11 22V28.2919C10.9962 29.2925 11.294 30.271 11.8547 31.0997C12.4154 31.9285 13.2129 32.5689 14.1432 32.9375L15.625 33.5263C15.7798 33.5876 15.9166 33.6868 16.0231 33.8148C16.1296 33.9428 16.2022 34.0954 16.2344 34.2588L16.8594 37.3919C16.951 37.8447 17.1961 38.2521 17.5533 38.5451C17.9106 38.8381 18.358 38.9988 18.82 39H19.5C19.6326 39 19.7598 38.9473 19.8536 38.8536C19.9474 38.7598 20 38.6326 20 38.5V36.0281C20 35.49 20.4138 35.0281 20.9519 35.0012C21.0871 34.9947 21.2222 35.0157 21.3491 35.063C21.476 35.1102 21.5919 35.1828 21.6899 35.2761C21.7879 35.3695 21.8659 35.4818 21.9192 35.6063C21.9725 35.7307 22 35.8646 22 36V38.5C22 38.6326 22.0527 38.7598 22.1465 38.8536C22.2403 38.9473 22.3674 39 22.5 39C22.6326 39 22.7598 38.9473 22.8536 38.8536C22.9474 38.7598 23 38.6326 23 38.5V36.0281C23 35.49 23.4138 35.0281 23.9519 35.0012C24.0871 34.9947 24.2222 35.0157 24.3491 35.063C24.4759 35.1102 24.5919 35.1828 24.6899 35.2761C24.7879 35.3695 24.8659 35.4818 24.9192 35.6063C24.9725 35.7307 25 35.8646 25 36V38.5C25 38.6326 25.0527 38.7598 25.1465 38.8536C25.2403 38.9473 25.3674 39 25.5 39C25.6326 39 25.7598 38.9473 25.8536 38.8536C25.9474 38.7598 26 38.6326 26 38.5V36.0281C26 35.49 26.4138 35.0281 26.9519 35.0012C27.0871 34.9947 27.2222 35.0157 27.3491 35.063C27.476 35.1102 27.5919 35.1828 27.6899 35.2761C27.7879 35.3695 27.8659 35.4818 27.9192 35.6063C27.9725 35.7307 28 35.8646 28 36V38.5C28 38.6326 28.0527 38.7598 28.1465 38.8536C28.2403 38.9473 28.3674 39 28.5 39H29.18C29.6421 38.999 30.0896 38.8384 30.447 38.5455C30.8043 38.2526 31.0496 37.8454 31.1413 37.3925L31.7663 34.2588C31.7988 34.0957 31.8716 33.9433 31.9779 33.8154C32.0841 33.6875 32.2207 33.5881 32.375 33.5263L33.8569 32.9375C34.7871 32.5689 35.5847 31.9285 36.1454 31.0997C36.7061 30.271 37.0039 29.2925 37 28.2919V22.1044C37 18.6044 35.625 15.3038 33.125 12.8088ZM18.7288 28.9925C18.0186 29.039 17.311 28.8679 16.7006 28.502C16.0901 28.136 15.6057 27.5927 15.312 26.9444C15.0182 26.2961 14.9291 25.5736 15.0566 24.8734C15.184 24.1731 15.5219 23.5284 16.0251 23.0251C16.5284 22.5218 17.1732 22.184 17.8734 22.0565C18.5737 21.9291 19.2961 22.0182 19.9444 22.3119C20.5927 22.6057 21.1361 23.0901 21.502 23.7005C21.8679 24.311 22.0391 25.0185 21.9925 25.7288C21.937 26.5761 21.5754 27.3744 20.9749 27.9749C20.3744 28.5753 19.5762 28.937 18.7288 28.9925ZM25.5625 32.8281C25.3906 32.9428 25.188 33.0027 24.9813 33H23.0188C22.8125 33.0025 22.6104 32.9426 22.4388 32.8281C22.2712 32.7145 22.142 32.5527 22.0684 32.3641C21.9947 32.1755 21.98 31.969 22.0263 31.7719L23.0207 28.7969C23.1875 28.375 23.4532 28.0625 23.875 28.0081C24.3913 27.9456 24.75 28.1875 24.9757 28.7719L25.9757 31.7719C26.0219 31.9691 26.0071 32.1756 25.9333 32.3642C25.8596 32.5528 25.7303 32.7146 25.5625 32.8281ZM29.73 28.9925C29.0198 29.039 28.3123 28.8679 27.7018 28.502C27.0913 28.136 26.6069 27.5927 26.3132 26.9444C26.0195 26.2961 25.9304 25.5736 26.0578 24.8734C26.1852 24.1731 26.5231 23.5284 27.0264 23.0251C27.5297 22.5218 28.1744 22.184 28.8747 22.0565C29.5749 21.9291 30.2974 22.0182 30.9457 22.3119C31.594 22.6057 32.1373 23.0901 32.5033 23.7005C32.8692 24.311 33.0403 25.0185 32.9938 25.7288C32.9383 26.5763 32.5764 27.3748 31.9757 27.9753C31.375 28.5757 30.5764 28.9373 29.7288 28.9925H29.73Z" fill="white"/>
</g>
<defs>
<clipPath id="clip0_50_12">
<rect width="32" height="32" fill="white" transform="translate(8 8)"/>
</clipPath>
</defs>
</svg>
