<svg width="44" height="44" viewBox="0 0 44 44" fill="none" xmlns="http://www.w3.org/2000/svg">
<g clip-path="url(#clip0_242_266)">
<path d="M22 1.25C33.4599 1.25 42.75 10.5401 42.75 22C42.75 33.4599 33.4599 42.75 22 42.75C10.5401 42.75 1.25 33.4599 1.25 22C1.25 10.5401 10.5401 1.25 22 1.25Z" fill="white" stroke="black" stroke-width="2.5"/>
<path d="M27.9883 14.5952C27.9883 17.7709 25.414 20.3452 22.2383 20.3452C19.0627 20.3452 16.4883 17.7708 16.4883 14.5952C16.4883 11.4196 19.0627 8.84525 22.2383 8.84525C25.414 8.84525 27.9883 11.4196 27.9883 14.5952Z" fill="white" stroke="black" stroke-width="2.5"/>
<path d="M32.2737 29.9226C32.2737 31.821 32.2065 32.7936 31.2939 33.5368C30.7894 33.9476 29.9267 34.3639 28.414 34.6701C26.9069 34.9752 24.8378 35.1547 21.9998 35.1547C19.1619 35.1547 17.0928 34.9752 15.5857 34.6701C14.073 34.3639 13.2103 33.9476 12.7059 33.5368C11.7933 32.7936 11.7261 31.821 11.7261 29.9226C11.7261 28.785 12.5592 27.5003 14.4643 26.4287C16.3302 25.3791 18.9919 24.6905 21.9998 24.6905C25.0078 24.6905 27.6696 25.3791 29.5354 26.4287C31.4406 27.5003 32.2737 28.785 32.2737 29.9226Z" fill="white" stroke="black" stroke-width="2.5"/>
</g>
<defs>
<clipPath id="clip0_242_266">
<rect width="44" height="44" rx="22" fill="white"/>
</clipPath>
</defs>
</svg>
