<svg width="29" height="25" viewBox="0 0 29 25" fill="none" xmlns="http://www.w3.org/2000/svg">
<path fill-rule="evenodd" clip-rule="evenodd" d="M9.88072 5.4395C10.162 5.34009 10.4712 5.35645 10.7404 5.485C11.0096 5.61356 11.2167 5.84376 11.3162 6.125C11.5488 6.78355 11.9799 7.35377 12.5501 7.7571C13.1203 8.16042 13.8015 8.37701 14.5 8.37701C15.1984 8.37701 15.8796 8.16042 16.4498 7.7571C17.02 7.35377 17.4511 6.78355 17.6837 6.125C17.7312 5.98346 17.8063 5.85277 17.9048 5.74056C18.0033 5.62836 18.1231 5.53687 18.2573 5.47144C18.3915 5.40601 18.5373 5.36793 18.6864 5.35944C18.8354 5.35095 18.9847 5.37221 19.1254 5.42198C19.2662 5.47175 19.3956 5.54903 19.5062 5.64933C19.6168 5.74963 19.7063 5.87093 19.7695 6.00617C19.8327 6.14141 19.8684 6.28788 19.8744 6.43704C19.8805 6.58621 19.8568 6.73509 19.8047 6.875C19.4169 7.97201 18.6985 8.9218 17.7485 9.59359C16.7985 10.2654 15.6635 10.6261 14.5 10.6261C13.3364 10.6261 12.2015 10.2654 11.2515 9.59359C10.3014 8.9218 9.58305 7.97201 9.19522 6.875C9.09581 6.59374 9.11218 6.2845 9.24073 6.01531C9.36928 5.74611 9.59949 5.53899 9.88072 5.4395ZM15.0407 2.75H13.9577C11.5202 2.75 9.89723 2.7545 8.66723 2.906C7.50023 3.05 6.96173 3.3005 6.58372 3.614C6.20573 3.929 5.86072 4.4105 5.50372 5.531C5.12872 6.7115 4.82573 8.306 4.37573 10.703C3.74573 14.063 3.32273 16.3445 3.24773 18.0635C3.17573 19.721 3.45323 20.426 3.84323 20.8955C4.23323 21.365 4.87373 21.767 6.51622 22.001C8.21872 22.244 10.5407 22.25 13.9592 22.25H15.0392C18.4592 22.25 20.7797 22.244 22.4822 22.001C24.1247 21.767 24.7652 21.365 25.1552 20.8955C25.5452 20.4245 25.8227 19.721 25.7507 18.0635C25.6757 16.3445 25.2527 14.063 24.6227 10.703C24.1727 8.306 23.8712 6.713 23.4947 5.531C23.1377 4.4105 22.7927 3.9275 22.4147 3.614C22.0367 3.3005 21.4997 3.05 20.3312 2.906C19.1012 2.7545 17.4782 2.75 15.0407 2.75ZM5.14672 1.883C3.48172 3.266 3.04223 5.6075 2.16473 10.289C0.930225 16.8725 0.312226 20.1635 2.11223 22.3325C3.91223 24.5 7.26022 24.5 13.9592 24.5H15.0392C21.7382 24.5 25.0877 24.5 26.8877 22.3325C28.6877 20.1635 28.0697 16.8725 26.8352 10.2875C25.9577 5.6075 25.5182 3.266 23.8517 1.883C22.1867 0.5 19.8032 0.5 15.0407 0.5H13.9577C9.19522 0.5 6.81322 0.5 5.14672 1.883Z" fill="#3F1D09"/>
</svg>
