<svg width="36" height="36" viewBox="0 0 36 36" fill="none" xmlns="http://www.w3.org/2000/svg">
<path fill-rule="evenodd" clip-rule="evenodd" d="M13.3815 10.9395C13.6628 10.8401 13.972 10.8565 14.2412 10.985C14.5104 11.1136 14.7175 11.3438 14.817 11.625C15.0496 12.2836 15.4807 12.8538 16.0509 13.2571C16.6211 13.6604 17.3023 13.877 18.0007 13.877C18.6992 13.877 19.3804 13.6604 19.9506 13.2571C20.5208 12.8538 20.9519 12.2836 21.1845 11.625C21.2319 11.4835 21.3071 11.3528 21.4056 11.2406C21.504 11.1284 21.6239 11.0369 21.758 10.9714C21.8922 10.906 22.0381 10.8679 22.1871 10.8594C22.3362 10.851 22.4854 10.8722 22.6262 10.922C22.7669 10.9717 22.8964 11.049 23.0069 11.1493C23.1175 11.2496 23.207 11.3709 23.2703 11.5062C23.3335 11.6414 23.3692 11.7879 23.3752 11.937C23.3813 12.0862 23.3576 12.2351 23.3055 12.375C22.9177 13.472 22.1993 14.4218 21.2492 15.0936C20.2992 15.7654 19.1643 16.1261 18.0007 16.1261C16.8372 16.1261 15.7023 15.7654 14.7522 15.0936C13.8022 14.4218 13.0838 13.472 12.696 12.375C12.5966 12.0937 12.6129 11.7845 12.7415 11.5153C12.87 11.2461 13.1003 11.039 13.3815 10.9395ZM18.5415 8.25H17.4585C15.021 8.25 13.398 8.2545 12.168 8.406C11.001 8.55 10.4625 8.8005 10.0845 9.114C9.70649 9.429 9.36149 9.9105 9.00449 11.031C8.62949 12.2115 8.32649 13.806 7.87649 16.203C7.24649 19.563 6.82349 21.8445 6.74849 23.5635C6.67649 25.221 6.95399 25.926 7.34399 26.3955C7.73399 26.865 8.37449 27.267 10.017 27.501C11.7195 27.744 14.0415 27.75 17.46 27.75H18.54C21.96 27.75 24.2805 27.744 25.983 27.501C27.6255 27.267 28.266 26.865 28.656 26.3955C29.046 25.9245 29.3235 25.221 29.2515 23.5635C29.1765 21.8445 28.7535 19.563 28.1235 16.203C27.6735 13.806 27.372 12.213 26.9955 11.031C26.6385 9.9105 26.2935 9.4275 25.9155 9.114C25.5375 8.8005 25.0005 8.55 23.832 8.406C22.602 8.2545 20.979 8.25 18.5415 8.25ZM8.64749 7.383C6.98249 8.766 6.54299 11.1075 5.66549 15.789C4.43099 22.3725 3.81299 25.6635 5.61299 27.8325C7.41299 30 10.761 30 17.46 30H18.54C25.239 30 28.5885 30 30.3885 27.8325C32.1885 25.6635 31.5705 22.3725 30.336 15.7875C29.4585 11.1075 29.019 8.766 27.3525 7.383C25.6875 6 23.304 6 18.5415 6H17.4585C12.696 6 10.314 6 8.64749 7.383Z" fill="#010101"/>
</svg>
