<svg width="24" height="25" viewBox="0 0 24 25" fill="none" xmlns="http://www.w3.org/2000/svg">
<path d="M5.00001 8.25C4.85177 8.25013 4.7069 8.29419 4.58368 8.37661C4.46046 8.45903 4.36444 8.57611 4.30773 8.71308C4.25101 8.85004 4.23616 9.00074 4.26505 9.14614C4.29393 9.29154 4.36526 9.42511 4.47001 9.53L11.47 16.53C11.6106 16.6705 11.8013 16.7493 12 16.7493C12.1988 16.7493 12.3894 16.6705 12.53 16.53L19.53 9.53C19.6348 9.42511 19.7061 9.29154 19.735 9.14614C19.7639 9.00074 19.749 8.85004 19.6923 8.71308C19.6356 8.57611 19.5396 8.45903 19.4163 8.37661C19.2931 8.29419 19.1483 8.25013 19 8.25H5.00001Z" fill="#010101"/>
</svg>
