<svg width="36" height="36" viewBox="0 0 36 36" fill="none" xmlns="http://www.w3.org/2000/svg">
<path fill-rule="evenodd" clip-rule="evenodd" d="M8.436 6.63601C5.9475 7.77301 4.125 10.479 4.125 13.7055C4.125 17.001 5.475 19.542 7.407 21.72C9.0015 23.514 10.9305 25.002 12.8115 26.451C13.2585 26.796 13.7025 27.1395 14.139 27.483C14.928 28.1055 15.6315 28.65 16.311 29.0475C16.989 29.4435 17.535 29.625 18 29.625C18.465 29.625 19.011 29.445 19.689 29.0475C20.3685 28.65 21.072 28.1055 21.861 27.483C22.296 27.138 22.7415 26.796 23.1885 26.4525C25.0695 25.0005 26.9985 23.514 28.593 21.72C30.5265 19.542 31.875 17.001 31.875 13.7055C31.875 10.4805 30.0525 7.77301 27.564 6.63601C25.146 5.53051 21.897 5.82301 18.81 9.03151C18.7051 9.14039 18.5792 9.227 18.4401 9.28615C18.3009 9.3453 18.1512 9.37579 18 9.37579C17.8488 9.37579 17.6991 9.3453 17.5599 9.28615C17.4208 9.227 17.2949 9.14039 17.19 9.03151C14.103 5.82301 10.854 5.53051 8.436 6.63601ZM18 6.69001C14.532 3.58501 10.6485 3.15001 7.5 4.58851C4.179 6.11101 1.875 9.63901 1.875 13.707C1.875 17.7045 3.54 20.7555 5.7255 23.2155C7.4745 25.185 9.615 26.8335 11.5065 28.2885C11.9355 28.6185 12.351 28.9395 12.7455 29.2515C13.515 29.8575 14.34 30.5025 15.1755 30.9915C16.011 31.479 16.965 31.8765 18 31.8765C19.035 31.8765 19.989 31.479 20.8245 30.9915C21.6615 30.5025 22.485 29.8575 23.2545 29.2515C23.6654 28.9278 24.0784 28.6068 24.4935 28.2885C26.3835 26.8335 28.5255 25.1835 30.2745 23.2155C32.46 20.7555 34.125 17.7045 34.125 13.707C34.125 9.63901 31.8225 6.11101 28.5 4.59151C25.3515 3.15151 21.468 3.58651 18 6.69001Z" fill="#010101"/>
</svg>
