<svg width="33" height="29" viewBox="0 0 33 29" fill="none" xmlns="http://www.w3.org/2000/svg">
<path fill-rule="evenodd" clip-rule="evenodd" d="M6.936 3.29754C4.4475 4.43454 2.625 7.14054 2.625 10.367C2.625 13.6625 3.975 16.2035 5.907 18.3815C7.5015 20.1755 9.4305 21.6635 11.3115 23.1125C11.7585 23.4575 12.2025 23.801 12.639 24.1445C13.428 24.767 14.1315 25.3115 14.811 25.709C15.489 26.105 16.035 26.2865 16.5 26.2865C16.965 26.2865 17.511 26.1065 18.189 25.709C18.8685 25.3115 19.572 24.767 20.361 24.1445C20.796 23.7995 21.2415 23.4575 21.6885 23.114C23.5695 21.662 25.4985 20.1755 27.093 18.3815C29.0265 16.2035 30.375 13.6625 30.375 10.367C30.375 7.14204 28.5525 4.43454 26.064 3.29754C23.646 2.19204 20.397 2.48454 17.31 5.69304C17.2051 5.80192 17.0792 5.88853 16.9401 5.94768C16.8009 6.00683 16.6512 6.03732 16.5 6.03732C16.3488 6.03732 16.1991 6.00683 16.0599 5.94768C15.9208 5.88853 15.7949 5.80192 15.69 5.69304C12.603 2.48454 9.354 2.19204 6.936 3.29754ZM16.5 3.35154C13.032 0.246542 9.1485 -0.188459 6 1.25004C2.679 2.77254 0.375 6.30054 0.375 10.3685C0.375 14.366 2.04 17.417 4.2255 19.877C5.9745 21.8465 8.115 23.495 10.0065 24.95C10.4355 25.28 10.851 25.601 11.2455 25.913C12.015 26.519 12.84 27.164 13.6755 27.653C14.511 28.1405 15.465 28.538 16.5 28.538C17.535 28.538 18.489 28.1405 19.3245 27.653C20.1615 27.164 20.985 26.519 21.7545 25.913C22.1654 25.5893 22.5784 25.2683 22.9935 24.95C24.8835 23.495 27.0255 21.845 28.7745 19.877C30.96 17.417 32.625 14.366 32.625 10.3685C32.625 6.30054 30.3225 2.77254 27 1.25304C23.8515 -0.186958 19.968 0.248041 16.5 3.35154Z" fill="#5E5E5E"/>
</svg>
