<svg width="20" height="20" viewBox="0 0 20 20" fill="none" xmlns="http://www.w3.org/2000/svg">
<g clip-path="url(#clip0_64_9)">
<path d="M12.1428 7.85714H16.4285C17.1863 7.85714 17.913 8.15816 18.4488 8.69398C18.9846 9.2298 19.2857 9.95652 19.2857 10.7143V16.4286H17.1428M2.1428 16.4286H0.714233V6.42857C0.714233 6.04969 0.864743 5.68633 1.13265 5.41842C1.40056 5.15051 1.76392 5 2.1428 5H10.7142C11.0931 5 11.4565 5.15051 11.7244 5.41842C11.9923 5.68633 12.1428 6.04969 12.1428 6.42857V16.4286M11.4285 16.4286H7.85709" stroke="#010101" stroke-width="2" stroke-linecap="round" stroke-linejoin="round"/>
<path d="M14.6429 19.2857C13.9798 19.2857 13.3439 19.0223 12.8751 18.5535C12.4062 18.0846 12.1429 17.4487 12.1429 16.7857C12.1429 16.1227 12.4062 15.4868 12.8751 15.0179C13.3439 14.5491 13.9798 14.2857 14.6429 14.2857C15.3059 14.2857 15.9418 14.5491 16.4106 15.0179C16.8795 15.4868 17.1429 16.1227 17.1429 16.7857C17.1429 17.4487 16.8795 18.0846 16.4106 18.5535C15.9418 19.0223 15.3059 19.2857 14.6429 19.2857ZM5 19.2857C4.33696 19.2857 3.70107 19.0223 3.23223 18.5535C2.76339 18.0846 2.5 17.4487 2.5 16.7857C2.5 16.1227 2.76339 15.4868 3.23223 15.0179C3.70107 14.5491 4.33696 14.2857 5 14.2857C5.66304 14.2857 6.29893 14.5491 6.76777 15.0179C7.23661 15.4868 7.5 16.1227 7.5 16.7857C7.5 17.4487 7.23661 18.0846 6.76777 18.5535C6.29893 19.0223 5.66304 19.2857 5 19.2857Z" stroke="#010101" stroke-width="2" stroke-linecap="round" stroke-linejoin="round"/>
</g>
<defs>
<clipPath id="clip0_64_9">
<rect width="20" height="20" fill="white"/>
</clipPath>
</defs>
</svg>
