<svg width="136" height="24" viewBox="0 0 136 24" fill="none" xmlns="http://www.w3.org/2000/svg">
<path fill-rule="evenodd" clip-rule="evenodd" d="M11.3305 1.53062C11.2606 1.37221 11.1489 1.23805 11.0085 1.14401C10.8681 1.04997 10.7049 1 10.5383 1C10.3716 1 10.2084 1.04997 10.068 1.14401C9.92761 1.23805 9.81589 1.37221 9.74606 1.53062L7.24208 7.211L1.30842 7.94798C1.14287 7.96845 0.986387 8.03812 0.857487 8.14877C0.728587 8.25942 0.632668 8.4064 0.581083 8.57233C0.529498 8.73825 0.524406 8.91618 0.56641 9.08504C0.608414 9.2539 0.695754 9.40663 0.818096 9.52516L5.20661 13.7717L4.04186 19.9087C4.00951 20.0798 4.02463 20.257 4.08544 20.4194C4.14625 20.5817 4.25019 20.7225 4.38499 20.825C4.51979 20.9275 4.67981 20.9874 4.84613 20.9977C5.01244 21.008 5.1781 20.9683 5.32352 20.8832L10.5383 17.8275L15.753 20.8832C15.8985 20.9686 16.0644 21.0086 16.231 20.9984C16.3975 20.9882 16.5578 20.9282 16.6928 20.8256C16.8278 20.7229 16.9318 20.5819 16.9926 20.4192C17.0533 20.2566 17.0682 20.0791 17.0355 19.9078L15.8708 13.7727L20.2584 9.52516C20.3808 9.40663 20.4681 9.2539 20.5101 9.08504C20.5521 8.91618 20.547 8.73825 20.4954 8.57233C20.4438 8.4064 20.3479 8.25942 20.219 8.14877C20.0901 8.03812 19.9336 7.96845 19.7681 7.94798L13.8336 7.21008L11.3305 1.53062Z" fill="#EDCF5D"/>
<path fill-rule="evenodd" clip-rule="evenodd" d="M39.3305 1.53062C39.2606 1.37221 39.1489 1.23805 39.0085 1.14401C38.8681 1.04997 38.7049 1 38.5383 1C38.3716 1 38.2084 1.04997 38.068 1.14401C37.9276 1.23805 37.8159 1.37221 37.7461 1.53062L35.2421 7.211L29.3084 7.94798C29.1429 7.96845 28.9864 8.03812 28.8575 8.14877C28.7286 8.25942 28.6327 8.4064 28.5811 8.57233C28.5295 8.73825 28.5244 8.91618 28.5664 9.08504C28.6084 9.2539 28.6958 9.40663 28.8181 9.52516L33.2066 13.7717L32.0419 19.9087C32.0095 20.0798 32.0246 20.257 32.0854 20.4194C32.1462 20.5817 32.2502 20.7225 32.385 20.825C32.5198 20.9275 32.6798 20.9874 32.8461 20.9977C33.0124 21.008 33.1781 20.9683 33.3235 20.8832L38.5383 17.8275L43.753 20.8832C43.8985 20.9686 44.0644 21.0086 44.2309 20.9984C44.3975 20.9882 44.5578 20.9282 44.6928 20.8256C44.8278 20.7229 44.9318 20.5819 44.9926 20.4192C45.0533 20.2566 45.0682 20.0791 45.0355 19.9078L43.8708 13.7727L48.2584 9.52516C48.3808 9.40663 48.4681 9.2539 48.5101 9.08504C48.5521 8.91618 48.547 8.73825 48.4954 8.57233C48.4438 8.4064 48.3479 8.25942 48.219 8.14877C48.0901 8.03812 47.9336 7.96845 47.7681 7.94798L41.8336 7.21008L39.3305 1.53062Z" fill="#EDCF5D"/>
<path fill-rule="evenodd" clip-rule="evenodd" d="M67.3305 1.53062C67.2606 1.37221 67.1489 1.23805 67.0085 1.14401C66.8681 1.04997 66.7049 1 66.5383 1C66.3716 1 66.2084 1.04997 66.068 1.14401C65.9276 1.23805 65.8159 1.37221 65.7461 1.53062L63.2421 7.211L57.3084 7.94798C57.1429 7.96845 56.9864 8.03812 56.8575 8.14877C56.7286 8.25942 56.6327 8.4064 56.5811 8.57233C56.5295 8.73825 56.5244 8.91618 56.5664 9.08504C56.6084 9.2539 56.6958 9.40663 56.8181 9.52516L61.2066 13.7717L60.0419 19.9087C60.0095 20.0798 60.0246 20.257 60.0854 20.4194C60.1462 20.5817 60.2502 20.7225 60.385 20.825C60.5198 20.9275 60.6798 20.9874 60.8461 20.9977C61.0124 21.008 61.1781 20.9683 61.3235 20.8832L66.5383 17.8275L71.753 20.8832C71.8985 20.9686 72.0644 21.0086 72.231 20.9984C72.3975 20.9882 72.5578 20.9282 72.6928 20.8256C72.8278 20.7229 72.9318 20.5819 72.9926 20.4192C73.0533 20.2566 73.0682 20.0791 73.0355 19.9078L71.8708 13.7727L76.2584 9.52516C76.3808 9.40663 76.4681 9.2539 76.5101 9.08504C76.5521 8.91618 76.547 8.73825 76.4954 8.57233C76.4439 8.4064 76.3479 8.25942 76.219 8.14877C76.0901 8.03812 75.9336 7.96845 75.7681 7.94798L69.8336 7.21008L67.3305 1.53062Z" fill="#EDCF5D"/>
<path fill-rule="evenodd" clip-rule="evenodd" d="M95.3305 1.53062C95.2606 1.37221 95.1489 1.23805 95.0085 1.14401C94.8681 1.04997 94.7049 1 94.5383 1C94.3716 1 94.2084 1.04997 94.068 1.14401C93.9276 1.23805 93.8159 1.37221 93.7461 1.53062L91.2421 7.211L85.3084 7.94798C85.1429 7.96845 84.9864 8.03812 84.8575 8.14877C84.7286 8.25942 84.6327 8.4064 84.5811 8.57233C84.5295 8.73825 84.5244 8.91618 84.5664 9.08504C84.6084 9.2539 84.6958 9.40663 84.8181 9.52516L89.2066 13.7717L88.0419 19.9087C88.0095 20.0798 88.0246 20.257 88.0854 20.4194C88.1462 20.5817 88.2502 20.7225 88.385 20.825C88.5198 20.9275 88.6798 20.9874 88.8461 20.9977C89.0124 21.008 89.1781 20.9683 89.3235 20.8832L94.5383 17.8275L99.753 20.8832C99.8985 20.9686 100.064 21.0086 100.231 20.9984C100.398 20.9882 100.558 20.9282 100.693 20.8256C100.828 20.7229 100.932 20.5819 100.993 20.4192C101.053 20.2566 101.068 20.0791 101.036 19.9078L99.8708 13.7727L104.258 9.52516C104.381 9.40663 104.468 9.2539 104.51 9.08504C104.552 8.91618 104.547 8.73825 104.495 8.57233C104.444 8.4064 104.348 8.25942 104.219 8.14877C104.09 8.03812 103.934 7.96845 103.768 7.94798L97.8336 7.21008L95.3305 1.53062Z" fill="#EDCF5D"/>
<path fill-rule="evenodd" clip-rule="evenodd" d="M123.33 1.53062C123.261 1.37221 123.149 1.23805 123.009 1.14401C122.868 1.04997 122.705 1 122.538 1C122.372 1 122.208 1.04997 122.068 1.14401C121.928 1.23805 121.816 1.37221 121.746 1.53062L119.242 7.211L113.308 7.94798C113.143 7.96845 112.986 8.03812 112.857 8.14877C112.729 8.25942 112.633 8.4064 112.581 8.57233C112.529 8.73825 112.524 8.91618 112.566 9.08504C112.608 9.2539 112.696 9.40663 112.818 9.52516L117.207 13.7717L116.042 19.9087C116.01 20.0798 116.025 20.257 116.085 20.4194C116.146 20.5817 116.25 20.7225 116.385 20.825C116.52 20.9275 116.68 20.9874 116.846 20.9977C117.012 21.008 117.178 20.9683 117.324 20.8832L122.538 17.8275L127.753 20.8832C127.899 20.9686 128.064 21.0086 128.231 20.9984C128.398 20.9882 128.558 20.9282 128.693 20.8256C128.828 20.7229 128.932 20.5819 128.993 20.4192C129.053 20.2566 129.068 20.0791 129.036 19.9078L127.871 13.7727L132.258 9.52516C132.381 9.40663 132.468 9.2539 132.51 9.08504C132.552 8.91618 132.547 8.73825 132.495 8.57233C132.444 8.4064 132.348 8.25942 132.219 8.14877C132.09 8.03812 131.934 7.96845 131.768 7.94798L125.834 7.21008L123.33 1.53062Z" fill="#EDCF5D"/>
</svg>
