<svg width="24" height="24" viewBox="0 0 24 24" fill="none" xmlns="http://www.w3.org/2000/svg">
<path d="M4 4H20M16 4L15.7294 3.18807C15.4671 2.40125 15.3359 2.00784 15.0927 1.71698C14.8779 1.46013 14.6021 1.26132 14.2905 1.13878C13.9376 1 13.523 1 12.6936 1H11.3064C10.477 1 10.0624 1 9.70951 1.13878C9.39792 1.26132 9.12208 1.46013 8.90729 1.71698C8.66405 2.00784 8.53292 2.40125 8.27064 3.18807L8 4M18 4V14.2C18 15.8802 18 16.7202 17.673 17.362C17.3854 17.9265 16.9265 18.3854 16.362 18.673C15.7202 19 14.8802 19 13.2 19H10.8C9.11984 19 8.27976 19 7.63803 18.673C7.07354 18.3854 6.6146 17.9265 6.32698 17.362C6 16.7202 6 15.8802 6 14.2V4M14 8V15M10 8V15" stroke="black" stroke-width="1.5" stroke-linecap="round" stroke-linejoin="round"/>
</svg>
