<svg width="36" height="36" viewBox="0 0 36 36" fill="none" xmlns="http://www.w3.org/2000/svg">
<path fill-rule="evenodd" clip-rule="evenodd" d="M18 1.875C16.1104 1.875 14.2981 2.62567 12.9619 3.96186C11.6257 5.29806 10.875 7.11033 10.875 9C10.875 10.8897 11.6257 12.7019 12.9619 14.0381C14.2981 15.3743 16.1104 16.125 18 16.125C19.8897 16.125 21.702 15.3743 23.0382 14.0381C24.3744 12.7019 25.125 10.8897 25.125 9C25.125 7.11033 24.3744 5.29806 23.0382 3.96186C21.702 2.62567 19.8897 1.875 18 1.875ZM13.125 9C13.125 7.70707 13.6386 6.46709 14.5529 5.55285C15.4671 4.63861 16.7071 4.125 18 4.125C19.293 4.125 20.5329 4.63861 21.4472 5.55285C22.3614 6.46709 22.875 7.70707 22.875 9C22.875 10.2929 22.3614 11.5329 21.4472 12.4471C20.5329 13.3614 19.293 13.875 18 13.875C16.7071 13.875 15.4671 13.3614 14.5529 12.4471C13.6386 11.5329 13.125 10.2929 13.125 9ZM18 18.375C14.5305 18.375 11.3325 19.164 8.96402 20.496C6.63002 21.81 4.87502 23.799 4.87502 26.25V26.403C4.87352 28.146 4.87202 30.333 6.79052 31.896C7.73402 32.664 9.05552 33.2115 10.8405 33.5715C12.6285 33.9345 14.961 34.125 18 34.125C21.039 34.125 23.37 33.9345 25.161 33.5715C26.946 33.2115 28.266 32.664 29.211 31.896C31.1295 30.333 31.1265 28.146 31.125 26.403V26.25C31.125 23.799 29.37 21.81 27.0375 20.496C24.6675 19.164 21.471 18.375 18 18.375ZM7.12502 26.25C7.12502 24.9735 8.05802 23.5875 10.0665 22.458C12.0405 21.348 14.8425 20.625 18.0015 20.625C21.1575 20.625 23.9595 21.348 25.9335 22.458C27.9435 23.5875 28.875 24.9735 28.875 26.25C28.875 28.212 28.815 29.316 27.789 30.15C27.234 30.603 26.304 31.0455 24.714 31.3665C23.1285 31.6875 20.961 31.875 18 31.875C15.039 31.875 12.87 31.6875 11.286 31.3665C9.69602 31.0455 8.76602 30.603 8.21102 30.1515C7.18502 29.316 7.12502 28.212 7.12502 26.25Z" fill="black"/>
</svg>
