<svg width="16" height="19" viewBox="0 0 16 19" fill="none" xmlns="http://www.w3.org/2000/svg">
<path d="M2.424 18.192C2.024 18.192 1.696 18.088 1.44 17.88C1.184 17.656 1.032 17.384 0.984 17.064C0.952 16.728 1.064 16.392 1.32 16.056L6.816 8.736V10.056L1.584 3.048C1.328 2.696 1.216 2.36 1.248 2.04C1.28 1.704 1.424 1.432 1.68 1.224C1.936 0.999999 2.256 0.887999 2.64 0.887999C2.96 0.887999 3.24 0.967999 3.48 1.128C3.736 1.272 3.992 1.52 4.248 1.872L8.568 7.824H7.584L11.88 1.872C12.136 1.52 12.384 1.272 12.624 1.128C12.88 0.967999 13.176 0.887999 13.512 0.887999C13.912 0.887999 14.24 0.991999 14.496 1.2C14.752 1.408 14.896 1.68 14.928 2.016C14.96 2.336 14.84 2.68 14.568 3.048L9.336 10.056V8.736L14.808 16.056C15.064 16.392 15.176 16.728 15.144 17.064C15.112 17.384 14.968 17.656 14.712 17.88C14.456 18.088 14.12 18.192 13.704 18.192C13.4 18.192 13.12 18.112 12.864 17.952C12.624 17.792 12.368 17.536 12.096 17.184L7.536 10.944H8.592L4.056 17.184C3.8 17.536 3.544 17.792 3.288 17.952C3.032 18.112 2.744 18.192 2.424 18.192Z" fill="#010101"/>
</svg>
