<svg width="29" height="28" viewBox="0 0 29 28" fill="none" xmlns="http://www.w3.org/2000/svg">
<path d="M21.0509 11.7716C21.4208 12.1438 21.9174 12.3459 22.4421 12.3459C22.9669 12.3459 23.4635 12.1403 23.8333 11.7716L27.9224 7.68084C28.2922 7.30863 28.4965 6.81589 28.4965 6.2877C28.4965 5.75952 28.2922 5.26678 27.9224 4.89457L23.5833 0.555658C22.8401 -0.185219 21.544 -0.185219 20.8009 0.555658L16.7153 4.64643C16.3455 5.01864 16.1413 5.51138 16.1413 6.03956C16.1413 6.56775 16.3455 7.06048 16.7153 7.4327L21.0509 11.7716ZM17.9058 5.83751L21.9948 1.74673C22.0653 1.67584 22.1498 1.6652 22.1921 1.6652C22.2343 1.6652 22.3189 1.67584 22.3893 1.74673L26.7284 6.08919C26.7989 6.16009 26.8094 6.24517 26.8094 6.2877C26.8094 6.33024 26.7989 6.41532 26.7284 6.48622L22.6429 10.577C22.5725 10.6479 22.4879 10.6585 22.4457 10.6585C22.4034 10.6585 22.3189 10.6479 22.2484 10.577L17.9058 6.23808C17.8353 6.16718 17.8248 6.0821 17.8248 6.03956C17.8248 5.99703 17.8353 5.9084 17.9058 5.83751ZM7.91384 16.2417C7.17069 15.5008 5.87107 15.5008 5.13145 16.2417L4.59258 16.7805C4.05371 17.3229 3.48314 18.2835 3.27182 19.0173L1.47208 25.2102C1.32063 25.7277 1.38755 26.2098 1.65874 26.5714C1.90528 26.9011 2.29975 27.089 2.74 27.089C2.9161 27.089 3.10277 27.0606 3.28943 27.0004L9.71359 25.0117C10.4391 24.7884 11.3936 24.2105 11.9289 23.6753L12.2459 23.3598C12.6157 22.9876 12.82 22.4948 12.82 21.9666C12.82 21.4385 12.6157 20.9457 12.2459 20.5735L7.91384 16.2417ZM11.0555 22.1687L10.7385 22.4842C10.4004 22.8245 9.67484 23.2605 9.21698 23.4023L5.37447 24.5898L3.91987 22.8351L4.89195 19.4923C5.02579 19.035 5.45195 18.3119 5.78654 17.9787L6.32541 17.4398C6.39585 17.369 6.48038 17.3583 6.52264 17.3583C6.56491 17.3583 6.64943 17.369 6.71987 17.4398L11.052 21.7752C11.1224 21.8461 11.133 21.9312 11.133 21.9737C11.1365 22.0163 11.1259 22.1013 11.0555 22.1687ZM8.19208 0.555658C7.44893 -0.185219 6.15283 -0.185219 5.40969 0.555658L1.07409 4.89457C0.704277 5.26678 0.5 5.75952 0.5 6.2877C0.5 6.81589 0.704277 7.30863 1.07409 7.68084L20.8044 27.4257C21.1742 27.7979 21.6708 28 22.1956 28C22.7204 28 23.217 27.7944 23.5868 27.4257L27.9259 23.0833C28.2957 22.7111 28.5 22.2183 28.5 21.6901C28.5 21.162 28.2957 20.6692 27.9259 20.297L8.19208 0.555658ZM26.7284 21.8887L22.3928 26.2311C22.3224 26.302 22.2379 26.3126 22.1956 26.3126C22.1533 26.3126 22.0688 26.302 21.9984 26.2311L2.26805 6.48622C2.19761 6.41532 2.18704 6.33024 2.18704 6.2877C2.18704 6.24517 2.19761 6.16009 2.26805 6.08919L6.60365 1.74673C6.67409 1.67584 6.75862 1.6652 6.80088 1.6652C6.84314 1.6652 6.92767 1.67584 6.99811 1.74673L7.58629 2.33518L5.57522 4.35221C5.24415 4.68188 5.24415 5.21716 5.57522 5.54683C5.74076 5.70989 5.9556 5.79497 6.17044 5.79497C6.38528 5.79497 6.60365 5.71344 6.76566 5.54683L8.78025 3.5298L9.75937 4.51173L8.88943 5.38376C8.56189 5.71344 8.56189 6.24871 8.88943 6.57838C9.05497 6.74145 9.26981 6.82652 9.48465 6.82652C9.6995 6.82652 9.91786 6.74499 10.0799 6.57838L10.9498 5.70635L11.9289 6.68827L9.91434 8.7053C9.58327 9.03497 9.58327 9.57025 9.91434 9.89992C10.0799 10.063 10.2947 10.1481 10.5096 10.1481C10.7244 10.1481 10.9392 10.0665 11.1048 9.89992L13.1194 7.88289L14.102 8.86482L13.2321 9.73686C12.9045 10.0665 12.9045 10.6018 13.2321 10.9315C13.3976 11.0981 13.6125 11.1796 13.8273 11.1796C14.0421 11.1796 14.2605 11.0981 14.4225 10.9315L15.2925 10.0594L16.2751 11.0414L14.2605 13.0584C13.933 13.3881 13.933 13.9233 14.2605 14.253C14.426 14.4161 14.6409 14.5012 14.8557 14.5012C15.0706 14.5012 15.2889 14.4196 15.4509 14.253L17.4655 12.236L18.4482 13.2179L17.5782 14.09C17.2507 14.4196 17.2507 14.9549 17.5782 15.2846C17.7438 15.4512 17.9586 15.5327 18.1735 15.5327C18.3883 15.5327 18.6067 15.4512 18.7687 15.2846L19.6386 14.4125L20.6177 15.3945L18.6031 17.4115C18.2721 17.7412 18.2721 18.2764 18.6031 18.6061C18.7687 18.7727 18.9835 18.8542 19.1984 18.8542C19.4132 18.8542 19.6281 18.7727 19.7936 18.6061L21.8082 16.5891L22.7873 17.571L21.9174 18.443C21.5898 18.7727 21.5898 19.308 21.9174 19.6377C22.0829 19.8007 22.2977 19.8858 22.5126 19.8858C22.7274 19.8858 22.9458 19.8043 23.1078 19.6377L23.9777 18.7656L24.9604 19.7476L22.9458 21.7646C22.6147 22.0943 22.6147 22.6295 22.9458 22.9592C23.1113 23.1223 23.3262 23.2073 23.541 23.2073C23.7558 23.2073 23.9742 23.1258 24.1362 22.9592L26.1508 20.9422L26.7108 21.5058C26.7813 21.5767 26.7918 21.6618 26.7918 21.7043C26.7918 21.7469 26.7989 21.8178 26.7284 21.8887Z" fill="url(#paint0_linear_93_73)"/>
<defs>
<linearGradient id="paint0_linear_93_73" x1="14.5" y1="0" x2="14.5" y2="28" gradientUnits="userSpaceOnUse">
<stop stop-color="#EDCF5D"/>
<stop offset="1" stop-color="#E8BC37"/>
</linearGradient>
</defs>
</svg>
