<svg width="32" height="32" viewBox="0 0 32 32" fill="none" xmlns="http://www.w3.org/2000/svg">
<g clip-path="url(#clip0_93_92)">
<path d="M24.67 17.0183L24.6888 17.0394C24.7082 17.0612 24.7323 17.0784 24.7591 17.09L24.3652 18.0091L24.7591 17.09C24.786 17.1015 24.8151 17.107 24.8443 17.106L24.8532 17.1057L24.862 17.1056C24.95 17.1044 25.0338 17.0684 25.0954 17.0056L25.1025 16.9984L25.1025 16.9984L29.3692 12.7317L29.3844 12.7165L29.4002 12.702C29.4274 12.677 29.4492 12.6467 29.464 12.6128L30.3795 13.0153L29.464 12.6128C29.4789 12.579 29.4866 12.5425 29.4866 12.5055C29.4866 12.4686 29.4789 12.432 29.464 12.3982L30.3795 11.9957L29.464 12.3982C29.4492 12.3644 29.4274 12.334 29.4002 12.309L29.3783 12.2889L29.3577 12.2676L27.3577 10.2009L26.8028 9.62757L27.2387 8.95924C27.3999 8.71202 27.4828 8.4219 27.4765 8.12681L27.4763 8.11616V8.10551C27.4763 7.66349 27.3007 7.23956 26.9881 6.927C26.6756 6.61444 26.2516 6.43885 25.8096 6.43885H25.799L25.7883 6.43862C25.4932 6.43233 25.2031 6.51522 24.9559 6.67646L24.2876 7.11232L23.7142 6.55745L21.6475 4.55745L21.6262 4.53679L21.6061 4.51491C21.5811 4.48769 21.5508 4.46595 21.5169 4.45108C21.4831 4.43621 21.4466 4.42853 21.4096 4.42853C21.3727 4.42853 21.3361 4.43621 21.3023 4.45108C21.2685 4.46595 21.2381 4.48768 21.2131 4.51491L21.1986 4.53075L21.1834 4.54595L16.9167 8.81262L16.9015 8.82782L16.8857 8.84235C16.8584 8.86733 16.8367 8.8977 16.8218 8.93152L15.9064 8.52907L16.8218 8.93153C16.807 8.96535 16.7993 9.00189 16.7993 9.03884C16.7993 9.0758 16.807 9.11234 16.8218 9.14616L15.9064 9.54862L16.8218 9.14617C16.8367 9.17999 16.8584 9.21036 16.8857 9.23534L16.9015 9.24987L16.9167 9.26507L19.85 12.1984L20.5572 12.9055L19.85 13.6126L16.5167 16.946L15.8096 17.6531L15.1025 16.946L11.5025 13.346L10.9303 12.7738L11.3706 12.0948C11.8816 11.3066 12.1502 10.3858 12.143 9.44652L12.1429 9.43885H12.1429C12.1429 8.78223 12.0136 8.13206 11.7623 7.52543C11.5111 6.9188 11.1428 6.3676 10.6785 5.90331C10.2142 5.43902 9.66299 5.07072 9.05636 4.81945C8.44973 4.56817 7.79955 4.43885 7.14294 4.43885C7.05454 4.43885 6.96975 4.47396 6.90724 4.53648C6.84473 4.59899 6.80961 4.68377 6.80961 4.77218C6.80961 4.86058 6.84473 4.94537 6.90724 5.00788C6.96975 5.07039 7.05454 5.10551 7.14294 5.10551C8 5.10551 8.8378 5.35966 9.55042 5.83581C10.263 6.31196 10.8184 6.98874 11.1464 7.78055C11.4744 8.57236 11.5602 9.44365 11.393 10.2842C11.2258 11.1248 10.8131 11.8969 10.2071 12.503C9.60105 13.109 8.82892 13.5217 7.98834 13.6889C7.14775 13.8561 6.27646 13.7703 5.48465 13.4423C4.69284 13.1143 4.01606 12.5589 3.53991 11.8463L4.37138 11.2907L3.53991 11.8463C3.06376 11.1337 2.80961 10.2959 2.80961 9.43885C2.80961 9.35044 2.77449 9.26566 2.71198 9.20314C2.64947 9.14063 2.56468 9.10551 2.47628 9.10551C2.38787 9.10551 2.30309 9.14063 2.24058 9.20314C2.17806 9.26566 2.14294 9.35044 2.14294 9.43885C2.14294 10.7649 2.66973 12.0367 3.60741 12.9744C4.54509 13.9121 5.81686 14.4388 7.14294 14.4388H7.15062L7.15061 14.4389C8.08994 14.4461 9.01073 14.1775 9.79889 13.6665L10.4779 13.2262L11.0501 13.7984L14.6501 17.3984L15.3572 18.1055L14.6501 18.8126L6.25005 27.2126L6.23485 27.2278L6.219 27.2424C6.19178 27.2673 6.17005 27.2977 6.15517 27.3315C6.14031 27.3653 6.13263 27.4019 6.13263 27.4388C6.13263 27.4758 6.14031 27.5123 6.15518 27.5462C6.17005 27.58 6.19178 27.6104 6.21901 27.6353L6.2507 27.6644L6.27979 27.6961C6.30476 27.7233 6.33513 27.7451 6.36896 27.7599C6.40278 27.7748 6.43932 27.7825 6.47628 27.7825C6.51323 27.7825 6.54978 27.7748 6.5836 27.7599C6.61742 27.7451 6.64779 27.7233 6.67277 27.6961L6.6873 27.6803L6.7025 27.6651L15.1025 19.2651L15.8096 18.558L16.5167 19.2651L24.9167 27.6651L24.9319 27.6803L24.9464 27.6961C24.9714 27.7233 25.0018 27.7451 25.0356 27.76C25.0694 27.7748 25.106 27.7825 25.1429 27.7825C25.1799 27.7825 25.2164 27.7748 25.2503 27.76L25.6527 28.6754L25.2503 27.7599C25.2841 27.7451 25.3145 27.7233 25.3394 27.6961L25.3685 27.6644L25.4002 27.6353C25.4274 27.6104 25.4492 27.58 25.464 27.5462L24.67 17.0183ZM24.67 17.0183L24.6501 16.9984M24.67 17.0183L24.6501 16.9984M24.6501 16.9984L21.7167 14.0651L21.0096 13.358L20.3025 14.0651L16.9692 17.3984L16.2621 18.1055L16.9692 18.8126L25.3692 27.2126L25.3844 27.2278M24.6501 16.9984L25.3844 27.2278M25.3844 27.2278L25.4002 27.2424M25.3844 27.2278L25.4002 27.2424M25.4002 27.2424C25.4274 27.2673 25.4492 27.2977 25.464 27.3315C25.4789 27.3653 25.4866 27.4019 25.4866 27.4388C25.4866 27.4758 25.4789 27.5123 25.4641 27.5462L25.4002 27.2424Z" stroke="url(#paint0_linear_93_92)" stroke-width="2"/>
</g>
<defs>
<linearGradient id="paint0_linear_93_92" x1="15.8148" y1="3.42853" x2="15.8148" y2="28.7825" gradientUnits="userSpaceOnUse">
<stop stop-color="#EDCF5D"/>
<stop offset="1" stop-color="#E8BC37"/>
</linearGradient>
<clipPath id="clip0_93_92">
<rect width="32" height="32" fill="white"/>
</clipPath>
</defs>
</svg>
