<svg width="28" height="28" viewBox="0 0 28 28" fill="none" xmlns="http://www.w3.org/2000/svg">
<path fill-rule="evenodd" clip-rule="evenodd" d="M24.9515 13.7051C25.5347 12.8582 25.5384 11.7543 25.5384 10.6635C25.5384 5.52949 19.1877 6.55761 19.1877 6.55761C19.1877 6.55761 19.3307 2.31329 14.135 2.31329C9.33809 2.31329 8.80008 6.5016 8.80008 6.5016C8.80008 6.5016 2.40422 5.98094 2.40422 11.1414C2.39621 11.9452 2.61735 12.7379 3.04757 13.448L1.03099 14.2587C0.348067 13.2269 -0.00784485 12.054 0.000131168 10.8613C0.000131168 7.6846 2.52085 4.36625 7.14845 4.36625C8.12287 1.69378 10.7978 0 14.1538 0C18.1079 0 20.2449 2.14853 21.0162 4.36296C25.1283 4.36296 27.999 7.39132 27.999 10.7393C28.0253 12.1971 27.555 13.6289 26.6483 14.8518L24.9515 13.7051ZM11.3246 19.251C11.3547 13.2569 14.3344 13.8962 14.7106 9.96823L15.8769 9.81995C18.0967 12.8087 18.7137 15.6592 17.0884 19.3993C19.2554 18.7666 19.6655 15.7481 25.3315 16.104L25.8432 16.2787C25.8432 16.2787 24.2856 22.4376 16.0086 23.6173L15.1245 28L10.5345 27.3179L11.9265 23.6931C5.21088 22.8659 2.04304 16.015 2.04304 16.015L2.91589 15.2571C5.64354 17.1783 8.4991 15.8338 11.3246 19.251Z" fill="url(#paint0_linear_93_99)"/>
<defs>
<linearGradient id="paint0_linear_93_99" x1="14" y1="0" x2="14" y2="28" gradientUnits="userSpaceOnUse">
<stop stop-color="#EDCF5D"/>
<stop offset="1" stop-color="#E8BC37"/>
</linearGradient>
</defs>
</svg>
