<svg width="32" height="32" viewBox="0 0 32 32" fill="none" xmlns="http://www.w3.org/2000/svg">
<path d="M4 9.33331L8 5.33331H12C12 5.85861 12.1035 6.37874 12.3045 6.86405C12.5055 7.34935 12.8001 7.7903 13.1716 8.16174C13.5431 8.53318 13.984 8.82781 14.4692 9.02883C14.9545 9.22985 15.4747 9.33331 16 9.33331C16.5253 9.33331 17.0455 9.22985 17.5308 9.02883C18.016 8.82781 18.4569 8.53318 18.8284 8.16174C19.1999 7.7903 19.4945 7.34935 19.6955 6.86405C19.8965 6.37874 20 5.85861 20 5.33331H24L28 9.33331L27.438 14.9536C27.3893 15.4401 26.8509 15.7105 26.4316 15.4589L24 14V24C24 25.4728 22.8061 26.6666 21.3333 26.6666H10.6667C9.19391 26.6666 8 25.4728 8 24V14L5.56839 15.4589C5.14912 15.7105 4.61068 15.4401 4.56203 14.9536L4 9.33331Z" stroke="url(#paint0_linear_93_106)" stroke-width="2" stroke-linecap="round" stroke-linejoin="round"/>
<defs>
<linearGradient id="paint0_linear_93_106" x1="16" y1="5.33331" x2="16" y2="26.6666" gradientUnits="userSpaceOnUse">
<stop stop-color="#EDCF5D"/>
<stop offset="1" stop-color="#E8BC37"/>
</linearGradient>
</defs>
</svg>
