<svg width="32" height="32" viewBox="0 0 32 32" fill="none" xmlns="http://www.w3.org/2000/svg">
<g clip-path="url(#clip0_93_82)">
<path d="M24.2348 8.45051C23.5253 7.67282 22.6961 6.98132 21.7531 6.40639C19.3164 4.92039 16.5367 4.46151 13.9221 4.90601C13.6906 4.94539 13.4605 4.99226 13.232 5.0457C12.9242 5.11764 12.6194 5.20189 12.3185 5.29907C10.8323 5.77876 9.44015 6.56314 8.2454 7.62657C7.42565 8.3562 6.69859 9.2167 6.09834 10.201C5.87821 10.562 5.6814 10.9307 5.50596 11.3051C3.07496 16.4919 4.89171 22.8061 9.89302 25.8558C9.96359 25.8988 10.0348 25.9393 10.106 25.9806C11.7406 26.93 13.52 27.4264 15.2955 27.5058C15.4652 27.5133 15.6349 27.5186 15.8044 27.5186C16.8207 27.5186 17.8305 27.3814 18.8063 27.1167C19.4688 26.9369 20.1154 26.6983 20.7373 26.4019C20.7791 26.3819 20.8208 26.3613 20.8623 26.3409C22.7376 25.4191 24.3816 23.9734 25.5478 22.0611C26.226 20.9489 26.6896 19.7653 26.9517 18.5586C27.7312 14.9703 26.7231 11.1779 24.2348 8.45051ZM11.2828 20.8867L11.8838 24.399C11.6021 24.2641 11.3256 24.1146 11.0553 23.9498C6.99902 21.4763 5.54809 16.3319 7.58021 12.1414L10.2504 13.6696C11.127 14.1712 11.5671 15.2056 11.3206 16.1851C11.2557 16.4431 11.326 16.7125 11.5088 16.9058L11.5921 16.9939C12.3978 17.8459 12.4132 19.1949 11.6268 20.0651L11.4713 20.2373C11.3112 20.4145 11.2425 20.6513 11.2828 20.8867ZM10.5851 10.7609C10.4728 10.8241 10.347 10.8565 10.2201 10.8565C10.1593 10.8565 10.0984 10.8491 10.0386 10.834L8.62015 10.4771C10.16 8.5122 12.3918 7.32114 14.7528 7.0407L14.4278 8.33201C14.378 8.52995 14.2491 8.69882 14.0711 8.79889L10.5851 10.7609ZM17.9804 25.0311C16.85 25.3051 15.7011 25.3615 14.5824 25.2089L14.412 24.1686C14.3572 23.8343 14.535 23.5052 14.8447 23.3679L15.5618 23.0501C16.7515 22.5228 18.1414 22.9241 18.8666 24.0046L19.2495 24.5751L19.3215 24.5959C18.89 24.7732 18.4422 24.9191 17.9804 25.0311ZM24.5353 18.9539L24.0608 18.4996C23.744 18.1964 23.329 18.0372 22.8899 18.0512C22.4516 18.0652 22.0469 18.2507 21.7501 18.5734C21.288 19.0761 20.6628 19.4168 19.9897 19.5326L18.1173 19.8548C17.994 19.876 17.8702 19.8865 17.7473 19.8865C17.2376 19.8865 16.7416 19.7071 16.3459 19.3718C15.8546 18.9557 15.5748 18.3478 15.5781 17.7039L15.5868 16.0184C15.5887 15.6668 15.4733 15.3183 15.2619 15.0373L14.2898 13.7444C14.1053 13.4992 14.0904 13.1659 14.252 12.9052L15.788 10.4267C15.9182 10.2164 16.1445 10.0847 16.3916 10.0751L19.9495 9.93701L21.1181 8.65989C24.4208 10.9974 25.749 15.2083 24.5353 18.9539Z" fill="url(#paint0_linear_93_82)"/>
<path d="M27.5266 4.31194L27.244 4.61719C24.23 1.63975 20.2376 0 16 0C12.1151 0 8.36906 1.40956 5.45194 3.96894C1.98719 7.00906 0 11.3942 0 16C0 16.6165 0.499813 17.1162 1.11625 17.1162C1.73275 17.1162 2.2325 16.6164 2.2325 16C2.2325 12.0368 3.94256 8.26338 6.92431 5.64719C9.43406 3.44519 12.6572 2.23256 16 2.23256C19.6512 2.23256 23.0908 3.64712 25.6854 6.2155C25.6994 6.22925 25.7143 6.24131 25.7287 6.25419L25.3974 6.61212C24.979 7.06413 25.3276 7.79525 25.9422 7.7545L27.9981 7.61844C28.3472 7.59537 28.6221 7.31144 28.6339 6.96181L28.7072 4.79763C28.7286 4.16713 27.9551 3.84894 27.5266 4.31194Z" fill="url(#paint1_linear_93_82)"/>
<path d="M30.8837 14.8837C30.2672 14.8837 29.7675 15.3835 29.7675 16C29.7675 19.3777 28.5324 22.626 26.2899 25.1469C23.6775 28.0834 19.927 29.7674 16 29.7674C12.6574 29.7674 9.43448 28.5549 6.92485 26.3532C6.8841 26.3175 6.84091 26.2865 6.79679 26.2577L7.07929 25.9525C7.15379 25.872 7.20354 25.7825 7.23229 25.6902C7.3646 25.2644 7.03954 24.7766 6.53448 24.81L5.42298 24.8835L4.4786 24.946C4.12948 24.969 3.8546 25.253 3.84279 25.6026L3.76948 27.7668C3.7481 28.3974 4.52154 28.7156 4.9501 28.2526L5.30298 27.8714C5.34679 27.9284 5.39654 27.9822 5.45266 28.0314C8.36954 30.5907 12.1154 32 16 32C20.5639 32 24.9224 30.043 27.9579 26.6309C30.5644 23.7007 32 19.9254 32 16C32 15.3835 31.5002 14.8837 30.8837 14.8837Z" fill="url(#paint2_linear_93_82)"/>
</g>
<defs>
<linearGradient id="paint0_linear_93_82" x1="15.823" y1="4.74377" x2="15.823" y2="27.5186" gradientUnits="userSpaceOnUse">
<stop stop-color="#EDCF5D"/>
<stop offset="1" stop-color="#E8BC37"/>
</linearGradient>
<linearGradient id="paint1_linear_93_82" x1="14.3538" y1="0" x2="14.3538" y2="17.1162" gradientUnits="userSpaceOnUse">
<stop stop-color="#EDCF5D"/>
<stop offset="1" stop-color="#E8BC37"/>
</linearGradient>
<linearGradient id="paint2_linear_93_82" x1="17.8845" y1="14.8837" x2="17.8845" y2="32" gradientUnits="userSpaceOnUse">
<stop stop-color="#EDCF5D"/>
<stop offset="1" stop-color="#E8BC37"/>
</linearGradient>
<clipPath id="clip0_93_82">
<rect width="32" height="32" fill="white"/>
</clipPath>
</defs>
</svg>
