<svg width="32" height="32" viewBox="0 0 32 32" fill="none" xmlns="http://www.w3.org/2000/svg">
<path d="M19.0698 9.19539L17.8635 6.77845L17.4923 6.03473L16.6933 6.2637L15.6245 6.56995L14.822 6.79991L14.9049 7.63058L15.1327 9.91251H15.0612L14.9623 10.8021L14.9061 11.3083L14.9061 11.3083L14.9054 11.3147L14.4242 15.9125H7.18853L8.01997 7.63116L8.10335 6.8007L7.30119 6.57016L6.23556 6.26391L5.43678 6.03435L5.06499 6.77767L3.85548 9.19581L3.40914 8.89816L5.59189 3.80307L8.17568 3.15771C8.55524 3.3506 8.95177 3.47044 9.31812 3.55776L9.31812 3.55776L9.32111 3.55847C9.99871 3.71777 10.7401 3.78751 11.4625 3.78751C12.1848 3.78751 12.9262 3.71777 13.6038 3.55847L13.6068 3.55776C13.9739 3.47026 14.37 3.35005 14.7489 3.15763L17.3325 3.80306L19.5157 8.89809L19.0698 9.19539ZM28.7269 28.9125H26.7271L23.9903 16.1466L23.8208 15.3563H23.0125H21.9125H21.1041L20.9347 16.1466L18.1979 28.9125H16.1981L17.6566 15.0375H27.2683L28.7269 28.9125Z" stroke="url(#paint0_linear_93_100)" stroke-width="2"/>
<defs>
<linearGradient id="paint0_linear_93_100" x1="16" y1="2.08813" x2="16" y2="29.9125" gradientUnits="userSpaceOnUse">
<stop stop-color="#EDCF5D"/>
<stop offset="1" stop-color="#E8BC37"/>
</linearGradient>
</defs>
</svg>
