<svg width="64" height="64" viewBox="0 0 64 64" fill="none" xmlns="http://www.w3.org/2000/svg">
<path d="M15.4053 27.456V48.7066C15.4053 52.2346 15.4053 54 16.6027 55.4986C17.7973 56.9973 19.2293 57.2586 22.0907 57.7866C24.736 58.272 28.088 58.6666 32 58.6666C35.912 58.6666 39.264 58.272 41.9093 57.7866C44.7707 57.2586 46.2027 56.9973 47.4 55.4986C48.5947 54 48.5947 52.2346 48.5947 48.7066V27.4533C48.5947 25.632 48.5947 24.72 48.9467 23.9173C49.296 23.1173 49.9547 22.5226 51.2693 21.336L51.7653 20.8906C54.5813 18.352 55.9893 17.08 56 15.2426C56.0107 13.4026 54.76 12.2506 52.264 9.94131C51.9037 9.60678 51.5319 9.28481 51.1493 8.97598C49.8907 7.96798 48.1147 6.86398 46.7547 6.06931C46.129 5.70624 45.4374 5.47097 44.7201 5.37713C44.0028 5.28329 43.274 5.33275 42.576 5.52265L41.2693 5.86664C40.2176 6.14595 39.3123 6.81657 38.7387 7.74131C35.5333 12.8 28.4667 12.8 25.2613 7.74131C24.6884 6.81711 23.7841 6.14656 22.7333 5.86664L21.4267 5.52265C20.7282 5.33238 19.999 5.28273 19.2812 5.37657C18.5634 5.47042 17.8714 5.70588 17.2453 6.06931C15.8853 6.86398 14.1093 7.96798 12.8507 8.97598C12.4681 9.28481 12.0963 9.60678 11.736 9.94131C9.23734 12.2506 7.98934 13.4053 8.00001 15.2426C8.01067 17.08 9.41867 18.352 12.2347 20.8906L12.7307 21.336C14.0453 22.5226 14.704 23.1173 15.0533 23.9173C15.4053 24.7173 15.4053 25.632 15.4053 27.456Z" fill="url(#paint0_linear_238_180)"/>
<defs>
<linearGradient id="paint0_linear_238_180" x1="32" y1="5.33044" x2="32" y2="58.6666" gradientUnits="userSpaceOnUse">
<stop stop-color="#EDCF5D"/>
<stop offset="1" stop-color="#E8BC37"/>
</linearGradient>
</defs>
</svg>
